<?xml version="1.0" encoding="utf-8"?>
<!-- Generator: Adobe Illustrator 18.0.0, SVG Export Plug-In . SVG Version: 6.00 Build 0)  -->
<!DOCTYPE svg PUBLIC "-//W3C//DTD SVG 1.1//EN" "http://www.w3.org/Graphics/SVG/1.1/DTD/svg11.dtd">
<svg version="1.1" id="Layer_1" xmlns="http://www.w3.org/2000/svg" xmlns:xlink="http://www.w3.org/1999/xlink" x="0px" y="0px"
	 viewBox="0 0 20 20" enable-background="new 0 0 20 20" xml:space="preserve">
<g>
	<path d="M10,3.958c3.337,0,6.042,2.705,6.042,6.042S13.337,16.042,10,16.042S3.958,13.337,3.958,10S6.663,3.958,10,3.958 M10,2.211
		c-4.295,0-7.789,3.494-7.789,7.789S5.705,17.789,10,17.789s7.789-3.494,7.789-7.789S14.295,2.211,10,2.211L10,2.211z"/>
</g>
<g>
	<path d="M7.27,7.39c0.14-0.36,0.336-0.672,0.588-0.936C8.11,6.19,8.414,5.984,8.77,5.836s0.754-0.222,1.194-0.222
		c0.568,0,1.042,0.078,1.422,0.234c0.38,0.156,0.686,0.35,0.918,0.582c0.232,0.232,0.398,0.482,0.498,0.75
		c0.1,0.268,0.15,0.518,0.15,0.75c0,0.384-0.05,0.7-0.15,0.948c-0.1,0.248-0.224,0.46-0.372,0.636
		c-0.148,0.176-0.312,0.326-0.492,0.45c-0.18,0.124-0.35,0.248-0.51,0.372c-0.16,0.124-0.302,0.266-0.426,0.426
		s-0.202,0.36-0.234,0.6v0.456h-1.62v-0.54c0.024-0.344,0.09-0.632,0.198-0.864c0.108-0.232,0.234-0.43,0.378-0.594
		s0.296-0.306,0.456-0.426c0.16-0.12,0.308-0.24,0.444-0.36c0.136-0.12,0.246-0.252,0.33-0.396s0.122-0.324,0.114-0.54
		c0-0.368-0.09-0.64-0.27-0.816c-0.18-0.176-0.43-0.264-0.75-0.264c-0.216,0-0.402,0.042-0.558,0.126
		C9.334,7.228,9.206,7.34,9.106,7.48c-0.1,0.14-0.174,0.304-0.222,0.492C8.836,8.16,8.812,8.362,8.812,8.578H7.048
		C7.056,8.146,7.13,7.75,7.27,7.39z M10.864,12.538v1.848H8.98v-1.848H10.864z"/>
</g>
</svg>
